# xmcd CD database file
#
# Track frame offsets:
#	150
#	19115
#	35255
#
# Disc length: 721 seconds
#
# Revision: 0
# Processed by: cddbd v1.5.1PL0 Copyright (c) Steve Scherf et al.
# Submitted via: CDex 1.51
#
DISCID=1802cf03
DTITLE=鈴木蘭々 - 泣かないぞェ
DYEAR=1995
DGENRE=JPop
TTITLE0=泣かないぞェ
TTITLE1=叱られたくて
TTITLE2=泣かないぞェ(オリジナル・カラオケ)
EXTD=YEAR: 1995
EXTT0=
EXTT1=
EXTT2=
PLAYORDER=
